<?xml version="1.0" encoding="UTF-8"?>
<!DOCTYPE svg PUBLIC "-//W3C//DTD SVG 1.1//EN" "http://www.w3.org/Graphics/SVG/1.1/DTD/svg11.dtd">
<!-- Creator: CorelDRAW X8 -->
<svg xmlns="http://www.w3.org/2000/svg" xml:space="preserve" width="150.054mm" height="63.0372mm" version="1.1" style="shape-rendering:geometricPrecision; text-rendering:geometricPrecision; image-rendering:optimizeQuality; fill-rule:evenodd; clip-rule:evenodd"
viewBox="0 0 5947 2498"
 xmlns:xlink="http://www.w3.org/1999/xlink">
 <defs>
  <style type="text/css">
   <![CDATA[
    .str1 {stroke:#49595B;stroke-width:19.8152}
    .str0 {stroke:#49595B;stroke-width:7.92609}
    .fil2 {fill:none}
    .fil1 {fill:#49595B}
    .fil3 {fill:#A87017}
    .fil0 {fill:white}
    .fil4 {fill:red;fill-rule:nonzero}
   ]]>
  </style>
 </defs>
 <g id="Capa_x0020_1">
  <metadata id="CorelCorpID_0Corel-Layer"/>
  <rect class="fil0" width="5947" height="2498" rx="1249" ry="1249"/>
  <g id="_1677699698000">
   <path class="fil1" d="M1535 1631l-302 -767 1009 -350 72 1037 -779 80zm321 -787c173,0 314,140 314,313 0,173 -141,314 -314,314 -173,0 -313,-141 -313,-314 0,-173 140,-313 313,-313z"/>
   <g>
    <path class="fil2 str0" d="M1280 1905c1,-1 2,-1 2,-2 19,-11 36,-22 53,-33 16,-10 31,-20 46,-29 14,-9 27,-18 40,-26 12,-8 24,-15 36,-23 11,-7 21,-13 32,-20 9,-6 19,-12 28,-18 9,-6 18,-11 26,-16 8,-5 16,-10 23,-15 8,-5 15,-9 22,-14 0,0 0,0 0,0"/>
    <path class="fil2 str0" d="M1356 1913c1,0 1,-1 2,-1 17,-13 33,-25 48,-36 15,-11 29,-21 42,-31 13,-9 25,-18 37,-26 12,-9 23,-17 33,-24 11,-7 20,-14 30,-21 9,-7 18,-13 26,-19 9,-6 17,-11 24,-17 8,-5 15,-10 22,-15 7,-5 14,-9 20,-14 0,0 1,0 1,0"/>
    <path class="fil2 str0" d="M1356 1913c1,0 1,-1 2,-1 17,-13 33,-25 48,-36 15,-11 29,-21 42,-31 13,-9 25,-18 37,-26 12,-9 23,-17 33,-24 11,-7 20,-14 30,-21 9,-7 18,-13 26,-19 9,-6 17,-11 24,-17 8,-5 15,-10 22,-15 7,-5 14,-9 20,-14 0,0 1,0 1,0"/>
    <path class="fil2 str0" d="M1396 1918c1,-1 2,-1 2,-2 16,-13 31,-25 46,-37 14,-11 27,-21 40,-31 12,-10 24,-19 35,-28 11,-8 22,-16 32,-24 10,-7 19,-14 28,-21 9,-7 17,-13 25,-19 8,-6 16,-12 23,-17 8,-6 15,-11 21,-16 7,-5 13,-9 19,-14 1,0 1,0 1,0"/>
    <path class="fil2 str0" d="M1439 1922c1,0 1,-1 2,-1 15,-13 29,-26 43,-38 13,-12 25,-22 37,-33 12,-9 23,-19 34,-28 10,-8 20,-17 30,-24 9,-8 18,-15 26,-22 9,-7 17,-13 25,-20 7,-6 14,-11 21,-17 7,-5 14,-11 20,-16 7,-4 13,-9 18,-14 1,0 1,0 1,0"/>
    <path class="fil2 str0" d="M1483 1927c1,0 1,-1 2,-1 14,-14 27,-27 40,-39 12,-12 24,-23 35,-34 11,-10 21,-20 31,-29 10,-9 19,-17 28,-25 9,-8 18,-15 26,-22 7,-7 15,-14 22,-20 7,-6 14,-12 21,-17 7,-6 13,-11 19,-16 6,-5 12,-10 17,-15 0,0 1,0 1,0"/>
    <path class="fil2 str0" d="M1529 1933c1,-1 1,-1 2,-2 13,-14 25,-28 37,-41 11,-12 22,-23 32,-34 10,-11 20,-20 30,-30 9,-9 17,-17 26,-26 8,-7 16,-15 23,-22 7,-7 15,-14 21,-20 7,-6 14,-12 20,-18 6,-6 12,-11 18,-16 5,-5 10,-10 16,-15 0,0 0,0 0,0"/>
    <path class="fil2 str0" d="M1578 1938c0,0 1,-1 1,-2 12,-14 23,-28 34,-42 10,-12 20,-24 29,-35 10,-11 19,-21 27,-31 8,-9 16,-18 24,-26 8,-8 15,-16 22,-23 7,-7 13,-14 20,-20 6,-7 12,-13 18,-19 5,-5 11,-11 16,-16 5,-5 10,-10 15,-15 0,0 0,0 1,0"/>
    <path class="fil2 str0" d="M1629 1944c0,-1 1,-1 1,-2 10,-15 20,-30 30,-44 9,-12 18,-25 26,-36 9,-11 17,-21 24,-31 8,-10 15,-19 22,-27 7,-9 14,-16 20,-24 6,-7 12,-14 18,-21 6,-6 11,-12 16,-18 5,-6 10,-11 15,-17 5,-5 10,-10 14,-15 0,0 1,0 1,0"/>
    <path class="fil2 str0" d="M1683 1950c0,-1 0,-1 1,-2 8,-16 17,-31 25,-45 8,-13 16,-26 23,-38 8,-11 15,-22 22,-32 6,-10 13,-19 19,-28 6,-8 12,-16 17,-24 6,-7 11,-14 17,-21 5,-6 9,-13 14,-19 5,-6 9,-11 14,-17 4,-5 8,-10 12,-15 0,0 1,0 1,0"/>
    <path class="fil2 str0" d="M1739 1956c0,0 1,-1 1,-2 7,-16 14,-32 21,-47 7,-13 13,-26 20,-39 6,-11 12,-22 18,-33 5,-9 11,-19 16,-28 5,-8 10,-17 15,-24 5,-8 10,-15 14,-22 5,-7 9,-13 13,-19 4,-6 8,-12 12,-17 4,-6 8,-11 11,-16 0,0 0,0 1,0"/>
    <path class="fil2 str0" d="M1799 1963c0,-1 0,-1 0,-2 6,-17 11,-33 16,-49 6,-14 11,-27 16,-40 5,-12 10,-23 15,-34 4,-10 9,-20 13,-29 5,-9 9,-17 13,-25 4,-8 8,-15 12,-22 3,-7 7,-13 11,-20 3,-6 6,-11 10,-17 3,-5 6,-11 9,-16 0,0 0,0 0,0"/>
    <path class="fil2 str0" d="M1861 1970c1,-1 1,-1 1,-2 3,-18 7,-35 11,-50 3,-15 7,-29 11,-42 4,-12 7,-24 11,-35 3,-11 7,-20 10,-30 4,-9 7,-17 10,-26 3,-8 6,-15 9,-22 3,-7 6,-14 9,-20 3,-6 6,-12 8,-18 3,-5 6,-10 8,-16 0,0 0,0 0,0"/>
    <path class="fil2 str0" d="M1928 1978c0,-1 0,-2 0,-3 2,-18 3,-36 5,-52 2,-15 4,-30 7,-43 2,-13 4,-25 6,-36 3,-11 5,-21 7,-31 3,-9 5,-18 7,-26 2,-8 5,-16 7,-23 2,-7 4,-14 6,-20 2,-7 4,-13 6,-18 2,-6 4,-11 6,-17 0,0 0,0 0,0"/>
    <path class="fil2 str0" d="M1998 1985c0,0 0,-1 0,-2 -1,-19 -1,-37 -1,-54 0,-16 1,-31 1,-45 1,-13 2,-25 3,-37 1,-11 2,-22 3,-32 1,-9 2,-18 3,-27 1,-8 3,-16 4,-23 1,-7 2,-14 4,-21 1,-6 2,-12 3,-18 2,-6 3,-11 4,-17 0,0 0,0 0,0"/>
    <path class="fil2 str0" d="M2072 1994c0,-1 0,-2 0,-3 -3,-20 -6,-39 -8,-56 -2,-17 -3,-32 -4,-46 -1,-14 -2,-27 -3,-39 0,-11 0,-22 -1,-32 0,-10 0,-19 0,-28 0,-8 0,-16 1,-24 0,-7 0,-14 1,-21 0,-7 0,-13 1,-19 0,-6 1,-11 1,-16 0,-1 0,-1 0,-1"/>
    <path class="fil2 str0" d="M2152 2003c-1,-1 -1,-2 -1,-3 -6,-21 -11,-40 -15,-59 -4,-17 -8,-33 -11,-48 -3,-14 -6,-27 -8,-39 -2,-12 -4,-23 -5,-34 -2,-10 -3,-19 -5,-28 -1,-9 -2,-17 -3,-25 0,-7 -1,-15 -2,-21 0,-7 -1,-13 -1,-20 -1,-5 -1,-11 -2,-16 0,-1 0,-1 0,-1"/>
    <path class="fil2 str0" d="M2236 2012c0,-1 -1,-1 -1,-2 -9,-22 -16,-43 -23,-62 -7,-18 -13,-34 -18,-50 -5,-14 -10,-28 -14,-40 -4,-13 -7,-24 -10,-35 -3,-10 -6,-20 -9,-29 -2,-9 -5,-18 -7,-26 -2,-7 -4,-15 -5,-22 -2,-6 -4,-13 -5,-19 -1,-6 -3,-12 -4,-17 0,-1 0,-1 0,-1"/>
    <path class="fil2 str0" d="M2326 2022c-1,-1 -1,-1 -1,-2 -12,-23 -23,-45 -33,-64 -9,-19 -17,-36 -25,-52 -7,-15 -14,-29 -20,-43 -6,-12 -11,-24 -16,-35 -5,-11 -9,-21 -14,-30 -3,-9 -7,-18 -11,-26 -3,-8 -6,-16 -9,-23 -3,-7 -5,-13 -8,-20 -2,-6 -5,-12 -7,-17 0,-1 0,-1 0,-1"/>
    <path class="fil2 str0" d="M2422 2033c-1,-1 -1,-2 -2,-3 -15,-24 -29,-46 -42,-67 -12,-19 -23,-37 -34,-53 -9,-16 -18,-30 -27,-44 -8,-13 -15,-25 -22,-37 -6,-11 -13,-21 -18,-31 -6,-9 -11,-18 -16,-27 -5,-8 -9,-16 -14,-23 -4,-7 -8,-14 -11,-20 -4,-7 -7,-13 -11,-18 0,-1 0,-1 0,-1"/>
    <path class="fil2 str0" d="M2525 2045c-1,-1 -2,-2 -3,-3 -19,-25 -36,-49 -53,-70 -15,-20 -29,-39 -42,-56 -13,-16 -24,-31 -35,-46 -10,-13 -20,-26 -29,-38 -8,-11 -17,-22 -24,-32 -8,-9 -15,-19 -21,-27 -7,-9 -12,-17 -18,-24 -6,-7 -11,-14 -16,-21 -5,-6 -10,-12 -14,-18 0,-1 0,-1 -1,-1"/>
    <path class="fil2 str0" d="M1281 1903c1,0 1,0 1,0 25,3 50,6 76,9 0,0 0,0 0,0 13,1 27,3 40,4 14,2 28,3 43,5 14,2 29,3 44,5 15,2 30,3 46,5 16,2 32,4 48,5 17,2 34,4 51,6 18,2 35,4 54,6 18,2 37,4 56,6 19,2 39,5 59,7 21,2 42,5 63,7 21,2 44,5 66,7 23,3 46,5 70,8 24,3 49,6 74,8 26,3 52,6 79,9 27,3 55,6 84,10 29,3 59,6 90,10 31,3 62,7 95,10 33,4 68,8 102,12 2,0 3,0 4,0"/>
    <path class="fil2 str0" d="M1334 1870c0,0 1,0 1,0 23,2 47,4 71,6 0,0 0,0 0,0 12,1 25,2 38,3 13,2 26,3 40,4 13,1 27,2 41,4 14,1 28,2 43,3 14,2 29,3 45,4 15,2 31,3 47,4 16,2 32,3 49,5 17,1 34,3 52,4 18,2 36,4 54,5 19,2 38,4 58,6 20,1 40,3 60,5 21,2 42,4 64,6 22,2 45,4 67,6 24,2 47,4 72,6 24,3 50,5 76,7 26,3 53,5 80,8 28,2 57,5 86,7 30,3 60,6 91,9 1,0 2,0 4,0"/>
    <path class="fil2 str0" d="M1380 1841c0,0 0,0 1,0 22,1 44,3 67,4 0,0 0,0 0,0 12,1 24,2 36,3 12,1 25,1 37,2 13,1 26,2 39,3 13,1 27,2 40,3 14,1 28,2 42,3 15,1 29,2 44,3 16,1 31,2 46,3 16,1 32,2 49,3 16,2 33,3 50,4 17,1 35,3 53,4 18,1 37,2 56,4 19,1 38,3 58,4 20,2 41,3 62,5 21,1 43,3 65,4 22,2 45,4 69,5 24,2 48,4 73,6 25,2 51,4 77,6 27,2 55,4 83,6 1,0 2,0 3,0"/>
    <path class="fil2 str0" d="M1420 1815c0,0 1,0 1,0 21,1 42,2 64,4 0,0 0,0 0,0 12,0 23,1 34,1 12,1 24,2 36,2 12,1 24,2 36,2 13,1 26,2 39,2 13,1 26,2 39,2 14,1 28,2 41,3 15,0 29,1 44,2 14,1 29,2 45,2 15,1 31,2 47,3 16,1 32,2 49,3 17,1 34,2 51,3 18,1 36,2 55,3 18,1 37,2 56,3 20,1 40,3 60,4 21,1 42,2 63,4 22,1 44,2 67,3 23,2 46,3 70,5 25,1 50,3 75,4 1,0 2,0 3,0"/>
    <path class="fil2 str0" d="M1456 1792c0,0 0,0 1,0 20,1 40,2 61,3 0,0 0,0 0,0 11,0 22,1 33,1 11,1 22,1 34,2 11,0 23,0 34,1 12,0 24,1 37,1 12,1 25,1 37,2 13,1 26,1 39,2 14,0 27,1 41,1 14,1 28,2 42,2 15,1 29,1 44,2 15,1 31,1 46,2 16,1 32,1 48,2 17,1 34,2 51,2 17,1 35,2 52,3 18,1 37,1 56,2 18,1 38,2 58,3 20,1 40,2 61,3 21,1 42,2 64,3 22,1 45,2 68,3 1,0 2,0 3,0"/>
    <path class="fil2 str0" d="M1488 1772c0,0 0,0 1,0 19,1 39,1 59,2 0,0 0,0 0,0 10,0 21,1 31,1 11,0 21,0 32,1 11,0 22,0 34,1 11,0 23,1 34,1 12,0 24,1 36,1 12,0 24,1 37,1 13,0 25,1 38,1 14,1 27,1 40,2 14,0 28,0 42,1 14,0 29,1 43,1 15,1 30,1 45,2 16,0 31,1 47,1 16,1 33,1 49,2 17,1 34,1 51,2 18,0 36,1 54,2 19,0 37,1 56,2 20,0 40,1 60,2 20,1 41,1 62,2 0,0 1,0 2,0"/>
    <path class="fil2 str0" d="M1516 1754c0,0 1,0 1,0 19,0 38,1 57,1 0,0 0,0 0,0 10,0 20,1 30,1 11,0 21,0 32,0 10,1 21,1 31,1 11,0 22,1 33,1 12,0 23,0 35,1 11,0 23,0 35,0 12,1 24,1 37,1 12,0 25,1 37,1 13,0 26,1 40,1 13,0 27,0 40,1 14,0 28,0 43,1 14,0 29,0 44,1 15,0 30,1 46,1 15,0 31,1 47,1 17,1 33,1 50,1 17,1 35,1 52,2 18,0 36,1 55,1 18,1 38,1 57,2 1,0 1,0 2,0"/>
    <path class="fil2 str0" d="M1542 1738c0,0 1,0 1,0 18,0 37,0 55,0 0,0 0,0 0,0 10,0 20,1 29,1 10,0 20,0 30,0 10,0 21,0 31,1 11,0 21,0 32,0 11,0 22,0 33,0 11,1 22,1 33,1 12,0 23,0 35,0 12,0 24,1 36,1 13,0 25,0 38,0 12,1 25,1 38,1 13,0 27,0 40,1 14,0 28,0 42,0 14,0 28,1 43,1 14,0 29,0 44,1 15,0 31,0 47,0 16,1 32,1 48,1 16,0 33,1 50,1 17,0 35,1 53,1 0,0 1,0 2,0"/>
    <path class="fil2 str0" d="M1565 1723c1,0 1,0 1,0 18,0 36,0 54,0 0,0 0,0 0,0 10,0 19,0 28,0 10,0 19,0 29,0 10,1 20,1 30,1 10,0 20,0 31,0 10,0 20,0 31,0 11,0 21,0 32,0 11,0 23,0 34,0 11,1 23,1 34,1 12,0 24,0 36,0 12,0 24,0 36,0 13,0 25,0 38,1 13,0 26,0 39,0 14,0 27,0 41,0 14,0 27,0 42,0 14,1 28,1 43,1 15,0 30,0 45,0 15,0 31,0 47,1 15,0 32,0 48,0 1,0 1,0 2,0"/>
    <path class="fil2 str0" d="M1587 1709c0,0 0,0 1,0 17,0 34,0 52,0 0,0 0,0 0,0 9,0 18,0 27,0 10,0 19,0 28,0 10,0 20,0 29,0 10,0 20,0 30,0 10,0 20,0 30,0 10,0 21,0 31,0 11,0 21,0 32,0 11,0 22,0 33,0 11,0 23,0 34,0 12,0 23,0 35,0 12,0 24,0 36,0 12,0 24,0 37,0 12,0 25,0 38,1 13,0 26,0 39,0 14,0 27,0 41,0 14,0 28,0 42,0 14,0 29,0 43,0 15,0 30,0 45,0 0,0 1,0 2,0"/>
   </g>
   <polyline class="fil2 str1" points="1414,1732 840,1531 5040,1531 "/>
   <path class="fil1" d="M5241 1420c88,0 159,50 159,111 0,61 -71,110 -159,110 -24,0 -48,-3 -68,-10l0 -200c20,-7 44,-11 68,-11zm-80 206c-43,-18 -73,-49 -78,-85l78 0 0 85zm-78 -97c1,-40 32,-74 78,-93l0 93 -78 0z"/>
   <path class="fil3" d="M2409 749c65,-44 141,-74 219,-75 29,-5 59,3 88,2 82,7 163,39 225,95 7,6 -4,12 -6,17 -33,36 -60,75 -93,110 -5,-7 -17,-11 -15,-21 12,-18 28,-32 39,-50 -43,-36 -91,-68 -145,-84 -101,-31 -212,-32 -312,6z"/>
   <path class="fil3" d="M3562 749c60,-40 129,-71 202,-74 98,-9 202,9 283,67 19,13 35,30 54,44 -35,40 -71,79 -105,121 -5,-6 -11,-12 -17,-17 12,-17 26,-33 41,-47 -58,-66 -141,-106 -227,-117 -77,-13 -158,-4 -231,23z"/>
   <path class="fil3" d="M4477 682c49,-1 99,-1 148,0 11,15 16,34 24,51 89,210 178,420 267,629 10,25 20,50 34,73l0 3 -105 0c-102,-237 -202,-475 -304,-712 -29,0 -58,0 -87,1 8,-15 12,-33 23,-45z"/>
   <path class="fil3" d="M3116 686c54,1 109,1 163,0 2,250 0,500 1,750 -27,1 -54,0 -81,0 0,-234 -1,-468 0,-703 -27,-3 -55,-1 -83,-1 1,-15 1,-31 0,-46z"/>
   <path class="fil3" d="M800 687c54,0 107,0 160,0 0,200 1,401 -1,602 113,1 225,0 337,1 7,0 16,1 19,8 8,13 16,27 21,42 2,32 0,64 1,96 -26,0 -52,0 -78,0 1,-32 0,-64 1,-96 -24,-3 -49,-2 -74,-2 -101,0 -203,-1 -304,0 1,-190 0,-381 1,-572 0,-11 -1,-23 -3,-35 -26,1 -53,0 -80,1 1,-15 1,-30 0,-45z"/>
   <path class="fil3" d="M2445 917c14,-10 30,-17 46,-25 -44,43 -63,104 -67,164 2,56 16,114 51,158 42,59 116,88 186,90 22,-1 44,-8 67,-6 -4,6 -8,13 -15,16 -31,19 -66,30 -102,34 -42,2 -86,5 -126,-13 -67,-25 -117,-86 -132,-155 -10,-31 -6,-64 -6,-97 7,-66 43,-129 98,-166z"/>
   <path class="fil3" d="M3544 972c27,-30 55,-63 94,-76 -68,83 -75,209 -19,300 32,54 89,93 151,102 36,4 73,2 109,-7 -58,45 -134,70 -207,53 -54,-10 -101,-45 -132,-91 -54,-84 -54,-200 4,-281z"/>
   <path class="fil3" d="M4366 1174c32,-77 63,-155 95,-233 9,24 20,48 28,72 -12,37 -30,73 -44,110 29,1 59,0 88,1 11,14 15,34 23,50 -63,0 -127,0 -190,0z"/>
   <path class="fil3" d="M2649 1006c108,-1 216,-1 325,0 0,107 1,215 -1,322 -22,26 -54,41 -81,60 2,-111 0,-223 1,-334 -81,0 -162,-1 -243,0 -1,-16 -1,-32 -1,-48z"/>
   <path class="fil3" d="M4002 1211c35,35 69,70 104,105 -36,37 -76,71 -122,95 15,-12 29,-24 42,-38 -33,-36 -67,-69 -101,-103 28,-16 54,-35 77,-59z"/>
   <path class="fil3" d="M4305 1328c18,0 37,0 55,1 -12,37 -29,73 -43,109l-60 0c18,-36 30,-74 48,-110z"/>
   <path class="fil4" d="M2532 1852l69 -7c4,23 13,40 25,51 13,11 30,16 51,16 23,0 40,-5 51,-14 12,-10 17,-21 17,-34 0,-8 -2,-15 -7,-21 -5,-6 -13,-11 -25,-15 -8,-3 -27,-8 -56,-15 -38,-10 -64,-21 -79,-35 -22,-19 -33,-43 -33,-70 0,-18 6,-35 16,-51 10,-15 24,-27 43,-35 19,-8 42,-12 69,-12 43,0 76,10 98,29 22,19 34,45 35,78l-71 2c-3,-18 -9,-31 -19,-39 -10,-8 -25,-12 -44,-12 -21,0 -37,5 -48,13 -7,5 -11,13 -11,22 0,8 3,15 10,21 9,8 31,15 65,24 34,8 59,16 76,25 16,8 29,20 38,35 9,15 14,34 14,56 0,20 -5,38 -17,56 -11,17 -26,30 -47,39 -20,8 -45,13 -76,13 -44,0 -78,-11 -101,-31 -24,-20 -38,-50 -43,-89zm342 113l0 -349 70 0 0 349 -70 0zm119 -113l69 -7c4,23 12,40 25,51 12,11 29,16 51,16 22,0 39,-5 51,-14 11,-10 17,-21 17,-34 0,-8 -2,-15 -7,-21 -5,-6 -13,-11 -25,-15 -9,-3 -27,-8 -57,-15 -37,-10 -64,-21 -79,-35 -21,-19 -32,-43 -32,-70 0,-18 5,-35 15,-51 10,-15 25,-27 44,-35 19,-8 41,-12 68,-12 44,0 77,10 99,29 22,19 33,45 35,78l-71 2c-3,-18 -10,-31 -19,-39 -10,-8 -25,-12 -45,-12 -20,0 -36,5 -47,13 -8,5 -12,13 -12,22 0,8 4,15 11,21 9,8 30,15 65,24 34,8 59,16 75,25 17,8 30,20 39,35 9,15 14,34 14,56 0,20 -6,38 -17,56 -11,17 -27,30 -47,39 -20,8 -46,13 -76,13 -44,0 -78,-11 -102,-31 -23,-20 -37,-50 -42,-89zm422 113l0 -290 -103 0 0 -59 277 0 0 59 -103 0 0 290 -71 0zm220 0l0 -349 258 0 0 59 -188 0 0 78 175 0 0 59 -175 0 0 94 195 0 0 59 -265 0zm324 0l0 -349 106 0 62 238 62 -238 106 0 0 349 -65 0 0 -275 -69 275 -68 0 -69 -275 0 275 -65 0zm721 0l-76 0 -30 -79 -140 0 -29 79 -75 0 136 -349 75 0 139 349zm-129 -138l-48 -129 -47 129 95 0zm149 25l68 -7c4,23 13,40 25,51 13,11 30,16 51,16 23,0 40,-5 51,-14 12,-10 18,-21 18,-34 0,-8 -3,-15 -8,-21 -4,-6 -13,-11 -25,-15 -8,-3 -27,-8 -56,-15 -38,-10 -64,-21 -79,-35 -22,-19 -32,-43 -32,-70 0,-18 5,-35 15,-51 10,-15 24,-27 43,-35 19,-8 42,-12 69,-12 43,0 76,10 98,29 22,19 34,45 35,78l-71 2c-3,-18 -9,-31 -19,-39 -10,-8 -25,-12 -44,-12 -20,0 -36,5 -48,13 -7,5 -11,13 -11,22 0,8 3,15 10,21 9,8 31,15 65,24 34,8 60,16 76,25 16,8 29,20 38,35 10,15 14,34 14,56 0,20 -5,38 -16,56 -11,17 -27,30 -47,39 -21,8 -46,13 -76,13 -45,0 -78,-11 -102,-31 -24,-20 -38,-50 -42,-89z"/>
  </g>
 </g>
</svg>
